<svg width="16" height="16" viewBox="0 0 16 16" fill="none" xmlns="http://www.w3.org/2000/svg">
<rect width="16" height="16" fill="#E5E5E5"/>
<g clip-path="url(#clip0_0_1)">
<rect width="360" height="4967" transform="translate(-18 -4925)" fill="white"/>
<rect x="-18" y="-891" width="360" height="933" fill="#303030"/>
<g opacity="0.8">
<path d="M8 15.5C12.1421 15.5 15.5 12.1421 15.5 8C15.5 3.85786 12.1421 0.5 8 0.5C3.85786 0.5 0.5 3.85786 0.5 8C0.5 12.1421 3.85786 15.5 8 15.5Z" stroke="white" stroke-linecap="round" stroke-linejoin="round"/>
<path d="M10.0834 5.49984C9.66243 5.07553 9.14326 4.79907 8.58821 4.70361C8.03315 4.60816 7.46578 4.69778 6.95419 4.96171C6.44259 5.22565 6.0085 5.65268 5.70401 6.19158C5.39951 6.73048 5.23755 7.35835 5.23755 7.99984C5.23755 8.64133 5.39951 9.2692 5.70401 9.80809C6.0085 10.347 6.44259 10.774 6.95419 11.038C7.46578 11.3019 8.03315 11.3915 8.58821 11.2961C9.14326 11.2006 9.66243 10.9241 10.0834 10.4998" stroke="white" stroke-linecap="round" stroke-linejoin="round"/>
</g>
</g>
<defs>
<clipPath id="clip0_0_1">
<rect width="360" height="4967" fill="white" transform="translate(-18 -4925)"/>
</clipPath>
</defs>
</svg>
