<svg width="20" height="21" viewBox="0 0 20 21" fill="none" xmlns="http://www.w3.org/2000/svg">
<ellipse cx="10" cy="10.555" rx="10" ry="9.87639" fill="#2DD06E"/>
<path d="M9.99372 14.7739C9.10572 14.7739 8.38172 14.4779 7.82172 13.8859C7.26172 13.2859 6.98172 12.5139 6.98172 11.5699V9.1939C6.98172 8.2499 7.26172 7.4819 7.82172 6.8899C8.38972 6.2899 9.11372 5.9899 9.99372 5.9899C10.8737 5.9899 11.5977 6.2899 12.1657 6.8899C12.7337 7.4899 13.0177 8.2579 13.0177 9.1939V11.5699C13.0177 12.5139 12.7337 13.2859 12.1657 13.8859C11.5977 14.4779 10.8737 14.7739 9.99372 14.7739ZM9.99372 13.7659C10.5857 13.7659 11.0657 13.5699 11.4337 13.1779C11.8017 12.7859 11.9857 12.2499 11.9857 11.5699V9.1939C11.9857 8.5139 11.8017 7.9779 11.4337 7.5859C11.0657 7.1939 10.5857 6.9979 9.99372 6.9979C9.40972 6.9979 8.93372 7.1939 8.56572 7.5859C8.19772 7.9779 8.01372 8.5139 8.01372 9.1939V11.5699C8.01372 12.2499 8.19772 12.7859 8.56572 13.1779C8.93372 13.5699 9.40972 13.7659 9.99372 13.7659Z" fill="white"/>
</svg>
